<svg width="39" height="56" viewBox="0 0 39 56" fill="none" xmlns="http://www.w3.org/2000/svg">
<g filter="url(#filter0_dd_708_1509)">
<path d="M29.7942 0L31.5139 0.343389C31.3665 0.712441 31.2068 1.11571 31.0226 1.53487C30.3101 3.20049 29.2782 5.11663 28.5657 5.82662C27.9638 6.41931 26.1335 6.9961 24.4997 7.22951C23.1238 7.44948 21.748 7.7061 20.3599 7.7061V9.65768H18.6401V7.7061C17.166 7.71832 15.6673 7.38837 14.5003 7.22951C12.8665 6.99733 11.0362 6.42053 10.4343 5.83029C9.72178 5.12029 8.68991 3.20415 7.97742 1.53975C7.79316 1.11938 7.63347 0.714885 7.48605 0.343389L9.20584 0C10.2377 1.38944 13.8738 5.75086 19.5 5.75086C25.1262 5.75086 28.7623 1.38944 29.7942 0ZM33.7128 0.779653L37.6315 1.55931L33.9831 10.6475L38 16.6355L36.833 24.7131C36.6119 24.8841 36.3662 25.0552 36.096 25.2385C34.7078 26.155 32.8898 27.0105 31.2928 27.0105C30.7646 27.0105 29.8187 26.5828 28.8114 25.7396C27.7918 24.8964 26.7231 23.7232 25.7649 22.5378C24.0206 20.3504 22.7799 18.3585 22.571 18.0163V15.7678H23.9223V13.5682H22.571V11.8573H23.9223V9.65768C23.9223 9.65768 28.7009 8.71672 30.1135 7.38838C31.3665 6.15291 32.3001 4.15856 33.0618 2.40006C33.3074 1.81471 33.5286 1.26358 33.7128 0.779653ZM5.28718 0.779653C5.47145 1.26358 5.69256 1.81593 5.93825 2.40373C6.69987 4.16222 7.63347 6.15657 8.88645 7.38838C10.7782 8.99778 15.0777 9.65768 15.0777 9.65768V11.8573H16.429V13.5682H15.0777V15.7678H16.429V18.0163C16.2201 18.3585 14.9794 20.3504 13.2351 22.5378C12.2769 23.7232 11.2082 24.8964 10.1886 25.7396C9.18127 26.5828 8.23539 27.0105 7.70717 27.0105C6.11023 27.0105 4.29216 26.155 2.90405 25.2385C2.6338 25.0552 2.38811 24.8841 2.167 24.7131L1 16.6355L5.01693 10.6475L1.36853 1.55808L5.28718 0.779653ZM20.3599 11.8573V13.5682H18.6401V11.8573H20.3599ZM20.3599 15.7678V18.6396L20.5196 18.8962C20.5196 18.8962 22.0183 21.3891 24.0452 23.9065C25.0525 25.1652 26.1949 26.4361 27.3865 27.426C28.5903 28.4158 29.8556 29.2101 31.2928 29.2101C33.2092 29.2101 34.9781 28.4647 36.4153 27.6215L36.1574 29.4545L29.4993 34.4282L19.5 22.4767L9.50066 34.4282L2.84263 29.4545L2.58466 27.6215C4.02191 28.4647 5.79084 29.2101 7.70717 29.2101C9.14442 29.2101 10.4097 28.4158 11.6135 27.426C12.8051 26.4361 13.9475 25.1652 14.9548 23.9065C16.9817 21.3891 18.4804 18.8962 18.4804 18.8962L18.6401 18.6396V15.7678H20.3599ZM19.5 25.9229L29.1554 37.4344L33.2214 34.4037L32.3124 38.9252C30.7032 39.3041 24.426 40.6972 19.5 40.6972C14.574 40.6972 8.29681 39.3041 6.68758 38.9252L5.77855 34.4037L9.84462 37.4344L19.5 25.9229ZM30.5926 41.5648L31.6614 45.8297C30.9366 46.0741 30.1258 46.3429 29.2537 46.6118C28.7377 46.7706 28.1972 46.9295 27.6567 47.0761L26.8459 42.2369C28.2341 42.017 29.5239 41.7725 30.5926 41.5648ZM8.40737 41.5648C9.4761 41.7725 10.7659 42.017 12.154 42.2369L11.3433 47.0761C10.8028 46.9295 10.2623 46.7706 9.74635 46.6118C8.87417 46.3429 8.06341 46.0741 7.33864 45.8297L8.40737 41.5648ZM24.6471 42.5424L25.4947 47.6383C23.7872 48.0415 22.0797 48.3593 20.6056 48.4693V42.8724C21.9323 42.8357 23.3081 42.7013 24.6471 42.5424ZM14.3529 42.5424C15.6919 42.7013 17.0677 42.8357 18.3944 42.8724V48.4693C16.9203 48.3593 15.2128 48.0415 13.5053 47.6383L14.3529 42.5424ZM34.4499 47.1739L35.8257 52.6364C35.8257 52.6364 28.922 55.1049 25.3104 55.6059C21.4778 56.1314 17.5222 56.1314 13.6896 55.6059C10.078 55.1049 3.1743 52.6364 3.1743 52.6364L4.55013 47.1739C5.54515 47.5527 7.01926 48.0782 9.10757 48.7137C12.3383 49.7035 16.3061 50.7178 19.5 50.7178C22.6939 50.7178 26.6617 49.7035 29.8924 48.7137C31.9807 48.0782 33.4548 47.5527 34.4499 47.1739Z" fill="#F9FAFB" fill-opacity="0.9" shape-rendering="crispEdges"/>
</g>
<defs>
<filter id="filter0_dd_708_1509" x="0.5" y="-0.5" width="38" height="57" filterUnits="userSpaceOnUse" color-interpolation-filters="sRGB">
<feFlood flood-opacity="0" result="BackgroundImageFix"/>
<feColorMatrix in="SourceAlpha" type="matrix" values="0 0 0 0 0 0 0 0 0 0 0 0 0 0 0 0 0 0 127 0" result="hardAlpha"/>
<feOffset dx="0.5" dy="0.5"/>
<feComposite in2="hardAlpha" operator="out"/>
<feColorMatrix type="matrix" values="0 0 0 0 0.847059 0 0 0 0 0.105882 0 0 0 0 0.760784 0 0 0 1 0"/>
<feBlend mode="normal" in2="BackgroundImageFix" result="effect1_dropShadow_708_1509"/>
<feColorMatrix in="SourceAlpha" type="matrix" values="0 0 0 0 0 0 0 0 0 0 0 0 0 0 0 0 0 0 127 0" result="hardAlpha"/>
<feOffset dx="-0.5" dy="-0.5"/>
<feComposite in2="hardAlpha" operator="out"/>
<feColorMatrix type="matrix" values="0 0 0 0 0 0 0 0 0 0.937255 0 0 0 0 0.972549 0 0 0 1 0"/>
<feBlend mode="normal" in2="effect1_dropShadow_708_1509" result="effect2_dropShadow_708_1509"/>
<feBlend mode="normal" in="SourceGraphic" in2="effect2_dropShadow_708_1509" result="shape"/>
</filter>
</defs>
</svg>
