<svg width="51" height="58" viewBox="0 0 51 58" fill="none" xmlns="http://www.w3.org/2000/svg">
<g filter="url(#filter0_dd_708_1535)">
<path d="M9.34452 0.306554C7.97128 0.398998 3.44065 10.3502 1.65552 16.2997C0.681952 19.5447 2.01647 25.3426 6.70404 29.1802C7.77042 28.9985 8.75452 28.8115 9.66057 28.6205C6.94132 25.6898 4.93573 22.5114 3.88012 18.6913L3.75658 18.2437L3.99411 17.8445C7.15646 12.5296 8.55353 9.55016 10.147 4.2634L10.6127 2.71786L11.8714 3.72833C13.6409 5.14925 14.7415 5.91651 15.7553 6.36724C14.0095 3.58543 11.9025 1.36265 9.40756 0.309942C9.3868 0.306284 9.36567 0.305146 9.34464 0.306554H9.34452ZM11.7392 6.38115C10.3206 10.7585 8.81816 13.9425 6.11174 18.5271C7.20123 22.1544 9.22703 25.1357 12.1295 28.0438C14.3975 27.4561 16.0726 26.8424 17.3788 26.2314C19.4207 25.2763 20.5871 24.3281 21.8462 23.3636C21.0558 19.1395 19.554 13.6666 17.246 9.04015C15.4607 8.70509 13.9553 8.02701 11.7392 6.38115ZM22.6407 25.5002C21.5328 26.3499 20.2454 27.295 18.3015 28.2042C16.2003 29.1871 13.3469 30.1266 9.07033 30.9622C13.3476 34.4421 16.9239 38.49 22.7002 40.9033C23.0378 39.0141 23.9718 37.3299 25.194 36.0896C26.3492 34.9174 27.8088 34.1073 29.3386 34.0544C29.605 33.4249 29.9893 32.777 30.6203 32.2478C31.3959 31.5976 32.5111 31.2408 33.8791 31.261C34.0498 31.0227 34.2447 30.8027 34.4608 30.6047C33.5673 30.4107 32.5018 30.2213 31.1762 29.9287L22.6407 25.5002ZM37.194 31.5865C37.1892 31.5875 37.1839 31.5879 37.1789 31.589C35.816 32.0402 35.6647 32.4089 35.1283 33.5344C34.1018 33.4128 32.7994 33.2826 32.0198 33.9168C31.2918 34.6807 31.1391 35.453 30.8479 36.4233C29.1525 36.0269 27.7297 36.6462 26.7455 37.6185C25.7736 38.6046 25.0092 40.0404 24.7996 41.5691C25.5166 41.8871 26.2648 42.079 26.9944 42.2621C28.5299 40.3868 30.8991 38.207 33.1243 37.8031C34.6967 36.1764 36.5933 35.6154 38.1075 35.3963C38.5394 35.0015 39.0173 34.6602 39.5309 34.3799C38.7285 32.9538 38.0299 32.1266 37.194 31.5865ZM9.12054 33.8712C8.88254 35.4362 8.1529 36.8445 9.0431 39.4741C12.9587 48.0234 14.0092 42.3455 20.3851 42.2515C15.6729 39.96 12.3838 36.7173 9.12054 33.8712ZM41.5203 35.9405C40.931 36.0582 40.3898 36.3684 39.9398 36.7004C41.0526 38.1826 41.9952 40.0053 42.7567 42.0015C43.7145 41.7532 44.5415 41.4434 45.3102 41.0932C44.5269 37.855 43.0171 36.4981 41.5204 35.9405H41.5203ZM37.8982 37.6232C36.9694 37.8058 36.012 38.1507 35.1425 38.8755C36.1549 39.9457 37.6806 41.8731 38.2949 44.1128C39.2184 43.9594 40.22 43.6654 40.8367 43.0751C40.0371 40.9143 39.0146 38.9938 37.8982 37.6232ZM33.2833 40.003C31.5514 40.6512 30.2272 41.8157 29.0877 43.1415L31.4331 46.3268C33.0903 46.1465 34.6564 45.57 36.1993 44.7176C35.6318 42.8907 33.9463 40.7352 33.2412 40.0461L33.2833 40.003ZM46.454 42.9512C45.6458 43.3262 44.7633 43.6754 43.7633 43.9646C44.5284 45.2133 45.1691 46.5223 45.6512 47.9023C46.5832 47.5308 47.4543 47.1313 48.2241 46.6824C47.7445 45.3175 47.1738 44.0137 46.4539 42.9512H46.454ZM14.3702 46.7452L20.3764 51.9938C21.7406 50.3584 23.6487 49.0971 25.518 47.8868L22.8535 44.8231C19.9091 43.8539 16.47 45.108 14.3702 46.7452ZM41.8631 45.0225C41.0323 45.6343 40.1518 45.9575 39.2259 46.1571C39.8758 47.2836 40.4813 48.5169 40.9627 49.7575C41.9242 49.4987 42.8323 49.2212 43.6664 48.8167C43.225 47.4982 42.6161 46.239 41.8631 45.0225ZM37.0376 46.7292C35.6147 47.4931 34.1105 48.0798 32.5098 48.3682L34.121 51.6893C35.8952 51.4259 37.521 51.2435 38.9206 50.51C38.413 49.2146 37.7376 47.8836 37.0375 46.7292H37.0376ZM48.8977 48.8051C48.0959 49.2412 47.2464 49.6162 46.3754 49.9587C46.7178 50.8259 47.0142 51.6671 47.2478 52.4703C48.5058 52.2967 49.6996 51.755 49.4474 50.7922C49.2752 50.1514 49.0938 49.4817 48.8977 48.8051ZM26.9703 49.5464C25.0268 50.8246 23.2084 52.0843 22.0422 53.4494L22.2106 53.5966C24.2251 55.3569 26.5977 56.0741 27.6496 54.7014C28.6808 53.3558 28.9245 51.7833 26.9703 49.5464ZM44.3957 50.8722C43.5286 51.2756 42.6532 51.5539 41.7984 51.7893C42.1675 52.6353 42.5053 53.4651 42.7959 54.2674C43.9091 54.2121 44.9415 53.7804 45.1348 53.0039C44.9386 52.3397 44.6886 51.6235 44.3957 50.8722ZM39.7447 52.5287C38.2051 53.3026 36.6149 53.5532 35.1245 53.7573L35.8505 55.2537C37.0651 56.549 39.8019 56.6254 40.9579 55.6099C40.6368 54.6532 40.2198 53.6115 39.7447 52.5287Z" fill="#F9FAFB" fill-opacity="0.9" shape-rendering="crispEdges"/>
</g>
<defs>
<filter id="filter0_dd_708_1535" x="0.356689" y="0.305969" width="50.1248" height="57" filterUnits="userSpaceOnUse" color-interpolation-filters="sRGB">
<feFlood flood-opacity="0" result="BackgroundImageFix"/>
<feColorMatrix in="SourceAlpha" type="matrix" values="0 0 0 0 0 0 0 0 0 0 0 0 0 0 0 0 0 0 127 0" result="hardAlpha"/>
<feOffset dx="1" dy="1"/>
<feComposite in2="hardAlpha" operator="out"/>
<feColorMatrix type="matrix" values="0 0 0 0 0.952941 0 0 0 0 0.470588 0 0 0 0 0.917647 0 0 0 1 0"/>
<feBlend mode="normal" in2="BackgroundImageFix" result="effect1_dropShadow_708_1535"/>
<feColorMatrix in="SourceAlpha" type="matrix" values="0 0 0 0 0 0 0 0 0 0 0 0 0 0 0 0 0 0 127 0" result="hardAlpha"/>
<feOffset dx="-1"/>
<feComposite in2="hardAlpha" operator="out"/>
<feColorMatrix type="matrix" values="0 0 0 0 0 0 0 0 0 0.976471 0 0 0 0 1 0 0 0 1 0"/>
<feBlend mode="normal" in2="effect1_dropShadow_708_1535" result="effect2_dropShadow_708_1535"/>
<feBlend mode="normal" in="SourceGraphic" in2="effect2_dropShadow_708_1535" result="shape"/>
</filter>
</defs>
</svg>
