<svg width="44" height="24" viewBox="0 0 44 24" fill="none" xmlns="http://www.w3.org/2000/svg">
<path opacity="0.5" d="M40.7426 0.972506L22.0001 19.2425L3.2576 0.972506C2.92274 0.645422 2.4732 0.462307 2.0051 0.462307C1.537 0.462307 1.08747 0.645422 0.752603 0.972506C0.590461 1.13137 0.461648 1.32099 0.373711 1.53027C0.285774 1.73954 0.240479 1.96426 0.240479 2.19126C0.240479 2.41825 0.285774 2.64297 0.373711 2.85224C0.461648 3.06152 0.590461 3.25114 0.752603 3.41L20.6914 22.85C21.0415 23.1913 21.5111 23.3823 22.0001 23.3823C22.4891 23.3823 22.9587 23.1913 23.3089 22.85L43.2476 3.41376C43.4109 3.25477 43.5407 3.06468 43.6293 2.85472C43.7179 2.64475 43.7636 2.41916 43.7636 2.19126C43.7636 1.96335 43.7179 1.73776 43.6293 1.52779C43.5407 1.31783 43.4109 1.12774 43.2476 0.968754C42.9127 0.64167 42.4632 0.458557 41.9951 0.458557C41.527 0.458557 41.0775 0.64167 40.7426 0.968754V0.972506Z" fill="url(#paint0_linear_966_2473)"/>
<defs>
<linearGradient id="paint0_linear_966_2473" x1="74.4964" y1="11.9324" x2="-12.7497" y2="4.59374" gradientUnits="userSpaceOnUse">
<stop stop-color="#F9FAFB"/>
<stop offset="1" stop-color="#F9FAFB" stop-opacity="0.1"/>
</linearGradient>
</defs>
</svg>
