<svg width="44" height="26" viewBox="0 0 44 26" fill="none" xmlns="http://www.w3.org/2000/svg">
<path opacity="0.5" d="M20.6425 1.17501L0.730016 22.0738C0.397598 22.4225 0.212158 22.8857 0.212158 23.3675C0.212158 23.8493 0.397598 24.3126 0.730016 24.6613L0.752516 24.6838C0.913666 24.8534 1.10764 24.9885 1.32264 25.0808C1.53764 25.1731 1.76917 25.2207 2.00314 25.2207C2.23712 25.2207 2.46864 25.1731 2.68364 25.0808C2.89864 24.9885 3.09262 24.8534 3.25377 24.6838L22.0038 5.00376L40.7463 24.6838C40.9074 24.8534 41.1014 24.9885 41.3164 25.0808C41.5314 25.1731 41.7629 25.2207 41.9969 25.2207C42.2309 25.2207 42.4624 25.1731 42.6774 25.0808C42.8924 24.9885 43.0864 24.8534 43.2475 24.6838L43.27 24.6613C43.6024 24.3126 43.7879 23.8493 43.7879 23.3675C43.7879 22.8857 43.6024 22.4225 43.27 22.0738L23.3575 1.17501C23.1824 0.991214 22.9718 0.844892 22.7384 0.744914C22.5051 0.644936 22.2539 0.593384 22 0.593384C21.7462 0.593384 21.4949 0.644936 21.2616 0.744914C21.0282 0.844892 20.8176 0.991214 20.6425 1.17501Z" fill="url(#paint0_linear_966_2471)"/>
<defs>
<linearGradient id="paint0_linear_966_2471" x1="74.5578" y1="12.9198" x2="-12.8745" y2="6.06598" gradientUnits="userSpaceOnUse">
<stop stop-color="#F9FAFB"/>
<stop offset="1" stop-color="#F9FAFB" stop-opacity="0.1"/>
</linearGradient>
</defs>
</svg>
