<svg width="40" height="39" viewBox="0 0 40 39" fill="none" xmlns="http://www.w3.org/2000/svg">
<path d="M34.2962 0.00588226C34.093 0.0401115 33.8679 0.121025 33.7897 0.186378C33.6803 0.279739 33.7147 0.332642 34.018 0.566044C34.5964 1.00795 34.6527 1.09198 34.5964 1.44674C34.487 2.15006 34.6433 2.60442 35.1279 2.99342C35.4437 3.2486 35.4499 3.26727 35.4687 3.87723L35.4843 4.39071L35.65 4.67702C36.0315 5.33054 36.0627 5.53282 35.8501 6.05253C35.6969 6.42908 35.6813 6.61892 35.7845 6.85543C35.8908 7.08883 35.9002 7.58675 35.8157 8.1158C35.7501 8.50169 35.7501 8.55459 35.7876 8.90314C35.8314 9.29836 35.8282 9.41662 35.7751 9.41662C35.7282 9.41662 35.2655 9.02451 35.2029 8.93114C35.1592 8.86579 35.1529 8.80978 35.1654 8.66973C35.1936 8.4021 35.1342 8.22161 34.9153 7.91974C34.6777 7.59609 34.5964 7.41248 34.5651 7.12617C34.5339 6.85543 34.5088 6.80875 34.2681 6.55045C34.0492 6.32327 33.9617 6.11166 33.9023 5.68842C33.8617 5.39278 33.821 5.29631 33.6553 5.0878C33.4521 4.83262 33.3708 4.64278 33.3083 4.28179C33.277 4.1013 33.2395 3.91769 33.2238 3.87412C33.1926 3.79321 33.0175 3.63138 32.7799 3.46022C32.5235 3.27972 32.511 3.23927 32.4891 2.63242C32.4672 2.05048 32.4391 1.94778 32.2984 1.94778C32.189 1.94778 31.9607 2.18118 31.8575 2.40213C31.5543 3.0401 31.2823 4.18532 31.2103 5.14382C31.1353 6.11166 31.3167 7.07638 31.8575 8.59193C32.2921 9.81185 32.6548 10.4809 32.9987 10.7174C33.0956 10.7828 33.1207 10.817 33.105 10.8637C33.0925 10.8979 33.08 11.0878 33.0706 11.2838C33.055 11.6573 33.0988 11.9249 33.3864 13.2444C33.4927 13.7423 33.5521 14.1033 33.5928 14.511C33.624 14.8129 33.6209 14.9218 33.5615 15.3637C33.4833 15.9767 33.5052 16.1666 33.6803 16.3658C33.7241 16.4155 33.721 16.428 33.6272 16.5182C33.4771 16.6645 33.4021 16.8357 33.4021 17.0255C33.4021 17.2931 33.5271 17.4954 33.8148 17.6852C33.9086 17.7475 33.9304 17.7848 33.9492 17.9C33.9867 18.1894 34.1837 18.4352 34.4432 18.5224C34.5745 18.5659 34.5933 18.5815 34.612 18.6811C34.6402 18.8367 34.5714 19.3657 34.4807 19.6832C34.3838 20.0193 34.1493 20.511 33.9367 20.8284C33.4489 21.5535 32.6642 22.2941 31.8575 22.7921C31.4355 23.0504 31.5042 23.0628 31.2447 22.68C29.7972 20.5545 27.371 18.3512 25.3262 17.3056L25.0823 17.1811L25.1011 16.901C25.1292 16.4187 25.2136 16.1417 25.3762 15.9923C25.4481 15.927 25.8733 15.7029 25.9296 15.7029C25.9453 15.7029 26.0265 15.6407 26.1141 15.5629C26.3017 15.3948 26.3361 15.2921 26.2485 15.1707L26.186 15.0867L26.3705 14.8969C26.7925 14.4674 27.1208 13.817 27.2303 13.1915C27.4147 12.1459 27.0208 10.982 26.2173 10.1946C25.7452 9.73093 25.3199 9.54421 24.6665 9.51932C24.2006 9.50064 23.9224 9.55355 23.566 9.72782C23.1095 9.95189 22.6655 10.4405 22.3591 11.0504C22.1246 11.5266 22.0183 11.984 22.0152 12.5442C22.0152 12.9986 22.0777 13.3315 22.2434 13.7143C22.4248 14.1438 22.8469 14.6946 23.172 14.9373C23.2939 15.0276 23.2939 15.0338 23.2502 15.1116C23.2064 15.1863 23.2064 15.205 23.2689 15.3357C23.3471 15.4913 23.4815 15.6375 23.7567 15.8709C23.9787 16.0577 24.0443 16.1946 24.0725 16.5245C24.0943 16.7579 24.0943 16.7703 24.0381 16.7454C23.7223 16.6147 22.7812 16.3875 22.2903 16.3284C21.171 16.1915 20.3269 16.288 19.0794 16.6894C19.0293 16.705 19.0231 16.6801 19.0231 16.4871C19.0231 16.2382 19.0325 16.2226 19.3139 16.0141C19.7016 15.7247 19.9235 15.3979 19.836 15.2361C19.8079 15.1832 19.8204 15.1583 19.9204 15.0743C20.5176 14.5639 20.9053 13.9073 21.0272 13.1977C21.0772 12.9021 21.046 12.2112 20.9647 11.9062C20.7114 10.9384 20.1549 10.1697 19.4389 9.80873C19.1263 9.65313 18.8293 9.59089 18.3978 9.594C17.3223 9.60334 16.5531 10.1324 15.9935 11.2465C15.5902 12.0494 15.4776 12.9456 15.6933 13.6178C15.8747 14.1811 16.3249 14.8875 16.6813 15.1738L16.8033 15.2703L16.7407 15.3512C16.5688 15.5691 16.7126 15.7496 17.291 16.0328C17.663 16.2133 17.7193 16.2506 17.785 16.3658C17.8788 16.5276 17.9226 16.6832 17.9476 16.9633L17.9663 17.1811L17.735 17.3025C15.7903 18.3232 13.2703 20.6323 11.8102 22.7329C11.6851 22.9134 11.5788 23.0721 11.5725 23.0908C11.5538 23.1406 11.2536 22.9788 10.8034 22.6831C9.60283 21.8834 8.71177 20.8066 8.37723 19.7485C8.27718 19.4311 8.19589 18.8771 8.2209 18.7029C8.23653 18.5846 8.24904 18.5753 8.39599 18.5193C8.66174 18.4259 8.85246 18.1801 8.88685 17.8938C8.89936 17.7755 8.91812 17.7506 9.06507 17.6479C9.36209 17.4456 9.48715 17.1811 9.42462 16.8948C9.39335 16.7579 9.25578 16.512 9.20889 16.512C9.19951 16.5089 9.15886 16.484 9.12134 16.4529L9.04943 16.3938L9.1276 16.1853C9.18075 16.039 9.21514 15.8523 9.23703 15.5815C9.31206 14.679 9.33707 14.4332 9.39648 14.0878C9.42774 13.8886 9.46839 13.6707 9.48715 13.6023C9.53405 13.4093 9.76228 12.3513 9.80293 12.1365C9.83732 11.9467 9.82794 11.4519 9.78417 11.3243C9.76854 11.2745 9.77792 11.2527 9.82169 11.2403C9.92486 11.2091 10.1468 10.9695 10.3251 10.6957C10.6033 10.2724 10.9723 9.41039 11.2505 8.52969C11.7101 7.07327 11.7414 6.2268 11.3787 4.82328C11.138 3.88657 10.9222 3.4291 10.669 3.29839C10.4595 3.18947 10.4032 3.30773 10.3751 3.92391C10.3501 4.42183 10.3188 4.49963 10.0843 4.64901C9.73415 4.86685 9.66223 4.96643 9.60908 5.31498C9.55906 5.63552 9.47777 5.82846 9.30268 6.04631C9.09633 6.30149 9.09008 6.31705 9.01504 6.68427C8.93062 7.11684 8.84621 7.28489 8.63673 7.46539C8.44601 7.62721 8.40849 7.7019 8.38035 7.93841C8.35221 8.20605 8.30532 8.31185 8.0802 8.62617C7.83946 8.95915 7.78318 9.10853 7.81445 9.31081C7.82696 9.40417 7.81758 9.47264 7.78318 9.53799C7.73629 9.62824 7.28606 10.039 7.23291 10.039C7.17351 10.039 7.17038 9.95189 7.22041 9.58778C7.27356 9.21123 7.27043 9.19255 7.21103 8.91247C7.08284 8.33052 7.09222 8.02244 7.24229 7.68323C7.33296 7.47783 7.30795 7.2631 7.14537 6.92389C6.9484 6.50688 6.97341 6.32327 7.3017 5.80668C7.5143 5.47369 7.52681 5.43324 7.52055 5.02245C7.5143 4.54009 7.54557 4.4654 7.85822 4.2071C8.27092 3.86789 8.421 3.54424 8.37723 3.08366C8.33033 2.60752 8.33658 2.52973 8.43663 2.40213C8.48353 2.33678 8.67737 2.17184 8.86497 2.0318C9.05256 1.89176 9.20576 1.76106 9.20576 1.73927C9.20576 1.68015 8.9744 1.57434 8.73991 1.52454C8.16775 1.40629 7.27356 1.54322 6.62011 1.85442C6.06984 2.11583 5.7353 2.37413 5.19441 2.95918C4.22831 4.00482 3.63114 4.98199 3.34975 5.97784C3.19968 6.52244 3.16529 6.85854 3.2028 7.42182C3.23407 7.82327 3.356 8.82222 3.41853 9.15521C3.44355 9.28591 3.44042 9.32326 3.38414 9.41039C3.30285 9.54421 3.32161 9.69981 3.44042 9.89587C3.57799 10.1168 3.59675 10.1604 3.66553 10.3876L3.72806 10.5992L3.61863 10.8139C3.29347 11.4674 3.32474 12.3948 3.71556 13.7143C4.17828 15.2797 4.76295 16.3471 5.36012 16.7299C5.44766 16.7859 5.51644 16.8357 5.51644 16.845C5.51644 16.8543 5.4883 16.8948 5.45391 16.9384C5.30384 17.1282 5.36012 17.4114 5.60086 17.6666C5.67902 17.7506 5.7353 17.8408 5.7353 17.8844C5.73843 18.1116 5.97917 18.3823 6.34185 18.5659C6.50443 18.6469 6.5482 18.6842 6.5482 18.7402C6.5482 18.7807 6.56071 18.8211 6.57947 18.8305C6.5951 18.8398 6.61073 18.9705 6.61073 19.1199C6.61073 19.3159 6.63574 19.4902 6.70453 19.7547C7.1141 21.373 8.07083 22.624 9.73727 23.7194C10.1156 23.9653 10.7409 24.3232 10.8003 24.3232C10.866 24.3232 10.8566 24.3916 10.7659 24.5939C10.6002 24.9643 10.3688 25.6925 10.2875 26.1126C10.1093 27.0244 10.0968 27.93 10.2532 28.6925C10.2782 28.8107 10.2938 28.9134 10.2875 28.9196C10.2813 28.9259 9.98114 29.0068 9.62472 29.1001C8.95876 29.2682 8.23966 29.4829 7.84572 29.6292C7.46115 29.7692 6.92964 29.9995 6.93902 30.0213C6.9484 30.0306 6.82959 30.0866 6.67952 30.1395C5.7947 30.4694 4.90364 31.1198 3.73432 32.2868C2.31174 33.709 1.577 34.7484 1.577 35.3459C1.577 35.514 1.58013 35.514 1.33626 35.4175C1.24246 35.3771 1.22996 35.3802 0.976707 35.5669C0.66718 35.7941 0.651547 35.8127 0.454575 36.1364C0.270109 36.4414 0.132542 36.7463 0.0575047 37.0202C-0.0112792 37.2692 -0.0206588 37.8013 0.041872 38.0472C0.110656 38.321 0.282616 38.626 0.473334 38.819L0.648421 38.9963L0.689066 38.7007C0.770356 38.069 0.936062 37.4839 1.12365 37.1789C1.17993 37.0824 1.33626 36.8864 1.46757 36.7432C1.81149 36.3636 1.8709 36.2515 1.84901 36.0275L1.83338 35.8439L2.07412 35.8314C2.65253 35.7941 3.48419 35.4144 4.35962 34.7858C5.04121 34.3003 5.40076 33.986 6.41063 33.0026C7.18289 32.2495 7.29232 32.1592 7.68001 31.9787C7.82696 31.9103 7.9145 31.8543 7.89574 31.8387C7.8676 31.8231 7.8676 31.8076 7.89574 31.7733C7.95514 31.7018 7.97703 31.7236 7.99892 31.8792C8.08333 32.4549 8.65236 34.1354 9.01191 34.8698L9.1401 35.1281L8.96502 35.2899C8.77742 35.4611 8.61172 35.6883 8.61172 35.7816C8.61172 35.8221 8.58671 35.8376 8.51792 35.8376C8.30219 35.8376 8.06145 36.0648 7.97078 36.3573C7.90199 36.5752 7.92075 36.8833 8.01767 37.1105C8.1146 37.3283 8.1615 37.3625 8.18963 37.2318C8.23966 36.9953 8.41162 36.6903 8.5742 36.5534C8.71489 36.432 8.73365 36.404 8.75241 36.2547C8.77117 36.0928 8.7743 36.0897 8.84933 36.1177C8.98065 36.1675 9.13698 36.152 9.34958 36.0679C9.46214 36.0244 9.55593 35.9932 9.55906 35.9995C9.56531 36.0026 9.59032 36.1053 9.62159 36.2235C9.79042 36.8988 10.2782 37.3812 10.891 37.487C10.9973 37.5057 11.0942 37.515 11.1036 37.5057C11.1129 37.4963 11.0692 37.431 11.0098 37.3563C10.8378 37.1478 10.5846 36.7121 10.5345 36.541C10.5095 36.4538 10.4876 36.264 10.4876 36.1084V35.8283L10.3626 35.7132L10.2406 35.6011L10.3407 35.542C10.397 35.5078 10.5877 35.3771 10.769 35.2495C11.1255 34.9974 11.3068 34.9227 11.5163 34.9445C11.6445 34.9601 11.6538 34.9538 11.6851 34.8698C11.7258 34.7702 11.5038 34.8574 13.9831 33.9549L15.3994 33.4383L15.7027 33.5379C16.0967 33.6623 16.6344 33.7899 17.2566 33.9082C17.5317 33.958 17.8913 34.0358 18.0539 34.0794C18.2164 34.1198 18.5916 34.1883 18.8824 34.2256C19.3858 34.2941 19.514 34.2972 21.3836 34.2972C23.0532 34.2972 23.4253 34.2879 23.8223 34.2443C24.0818 34.2132 24.5102 34.1758 24.7759 34.1572C26.5924 34.0358 28.2339 33.6997 29.3094 33.2298L29.4501 33.1706L30.4756 33.2702C31.0384 33.3262 31.5042 33.376 31.5105 33.3823C31.5167 33.3885 31.4949 33.5845 31.4636 33.8148C31.3886 34.3594 31.3823 35.3491 31.4511 35.5793C31.4761 35.6665 31.5261 35.7692 31.5605 35.8127L31.6199 35.8905L31.5293 36.1084L31.4355 36.3262L31.5011 36.5098C31.573 36.709 31.5668 36.8895 31.4824 37.2132C31.4605 37.3034 31.4448 37.3843 31.4511 37.3905C31.4824 37.4185 31.7544 37.2256 31.87 37.0949C32.1671 36.7588 32.239 36.3293 32.0451 36.0461L31.9732 35.9372L32.0639 35.8501C32.1702 35.7505 32.2546 35.5358 32.3234 35.2121C32.436 34.6644 32.5016 33.8211 32.4641 33.4134C32.4234 32.9684 32.2421 32.5078 32.1077 32.5078C32.0858 32.5078 31.8669 32.4331 31.6199 32.3397C31.3698 32.2464 31.1166 32.1623 31.0509 32.1499C30.9884 32.1375 30.9352 32.1219 30.9352 32.1157C30.9352 32.1094 30.9665 32.0534 31.0071 31.9943L31.0759 31.8854H32.783H34.4932L34.5557 32.0316C34.5901 32.1157 34.6839 32.4891 34.7652 32.8626C34.9309 33.6468 35.1279 34.3439 35.3061 34.8045C35.4281 35.1125 35.4281 35.125 35.3718 35.1654C35.3311 35.1935 35.2967 35.2837 35.2655 35.4518C35.1936 35.8283 35.0935 35.9964 34.7433 36.3418C34.5745 36.5098 34.4213 36.6468 34.4057 36.6468C34.3869 36.6468 34.3744 36.6592 34.3744 36.6748C34.3744 36.6903 34.4494 36.7121 34.5401 36.7215C34.8403 36.7588 35.2561 36.6405 35.525 36.4383C35.5812 36.3947 35.6375 36.3698 35.65 36.3822C35.6625 36.3947 35.6719 36.5876 35.6719 36.8117C35.6688 37.154 35.6563 37.2567 35.5969 37.4248C35.5093 37.6768 35.1842 38.3553 35.056 38.5544C35.0028 38.6353 34.9684 38.7131 34.981 38.7256C35.0185 38.7598 35.5 38.6478 35.6688 38.5638C36.3691 38.2183 36.7975 37.459 36.8663 36.4445C36.8819 36.2142 36.8725 36.1239 36.8194 35.9341C36.7631 35.7349 36.7568 35.6945 36.7943 35.654C36.885 35.5513 37.0351 35.2059 37.1383 34.8667C37.3384 34.2007 37.4916 33.1426 37.5666 31.8698C37.6823 29.8999 37.3321 28.2879 36.6474 27.6624C36.5098 27.5379 36.2847 27.3979 36.3254 27.4632C36.3535 27.5068 36.1815 27.5099 36.1409 27.4694C36.094 27.4259 35.2061 27.2889 34.6214 27.2329C34.3338 27.208 33.8241 27.1769 33.4865 27.1645L32.8737 27.1458L32.8612 27.0493C32.8518 26.9964 32.8299 26.7972 32.8111 26.6105C32.7455 25.9788 32.5579 25.2599 32.2765 24.5753C32.2108 24.4134 32.1577 24.2796 32.1639 24.2734C32.1671 24.2703 32.3046 24.1956 32.4672 24.1053C33.721 23.4207 34.8496 22.4 35.4468 21.4103C35.8501 20.7412 36.2191 19.7081 36.2191 19.2413C36.2191 19.151 36.2284 18.9861 36.2378 18.8709C36.2597 18.6655 36.2597 18.6655 36.3879 18.6064C36.6005 18.513 36.8631 18.3294 36.9475 18.2174C36.9913 18.1614 37.0476 18.0431 37.0695 17.9591C37.0945 17.8564 37.1539 17.7506 37.2414 17.6541C37.3946 17.4799 37.4478 17.3398 37.4322 17.1531C37.4228 17.0193 37.4259 17.0162 37.5791 16.929C37.9074 16.7485 38.2982 16.288 38.6171 15.7029C38.9423 15.1147 39.3362 14.0068 39.577 13.0266C39.874 11.8129 39.8459 10.8139 39.4957 10.1884L39.4238 10.0546L39.4957 9.80562C39.627 9.35438 39.8896 7.66455 39.9709 6.74028C40.0178 6.20813 40.0084 5.88448 39.9396 5.48925C39.7083 4.15108 38.9986 2.82537 37.7792 1.45919C36.9257 0.50069 35.9846 0.0401115 34.8121 0.00588226C34.5808 -0.00345612 34.3494 -0.000343323 34.2962 0.00588226ZM35.2436 29.3335C35.2655 29.4611 35.2748 29.6634 35.2655 29.8781C35.2561 30.0648 35.2467 30.2951 35.2436 30.3823C35.2373 30.5628 35.2248 30.5783 35.1435 30.4881C35.0904 30.4321 35.0904 30.4258 35.1435 30.3978C35.1873 30.3729 35.1654 30.3574 35.0185 30.3014C34.5683 30.1333 33.4489 29.8844 32.7799 29.7972C32.6173 29.7785 32.4735 29.7536 32.461 29.7412C32.4516 29.7319 32.4735 29.6385 32.5172 29.5389C32.5579 29.4362 32.5923 29.3366 32.5923 29.3149C32.5923 29.2557 32.6517 29.2464 33.327 29.209C33.6709 29.1904 34.1493 29.1624 34.39 29.1499C34.6308 29.1344 34.9122 29.125 35.0153 29.1281L35.2029 29.1312L35.2436 29.3335ZM12.6387 31.9694C12.72 32.0161 12.9138 32.1437 13.067 32.2588C13.3328 32.4549 13.6236 32.6478 13.7486 32.7163C13.7955 32.7412 13.7392 32.763 13.4829 32.8283C13.3047 32.875 13.0889 32.9248 12.9983 32.9435C12.8232 32.9746 12.3823 33.1831 11.9415 33.4445C11.6288 33.6281 11.0504 34.0264 11.0504 34.0576C11.0504 34.07 10.9754 34.098 10.8878 34.1198C10.7972 34.1385 10.6033 34.2132 10.4595 34.2816C10.3157 34.3501 10.1937 34.403 10.1937 34.3999C10.1906 34.3937 10.1343 34.1789 10.0718 33.9238C9.94988 33.4289 9.84045 33.0804 9.58407 32.3553C9.49653 32.1094 9.42462 31.9009 9.42462 31.8947C9.42462 31.8916 10.1156 31.8854 10.9597 31.8854H12.4918L12.6387 31.9694Z" fill="#F9FAFB" fill-opacity="0.9"/>
</svg>
