<svg width="37" height="38" viewBox="0 0 37 38" fill="none" xmlns="http://www.w3.org/2000/svg">
<path d="M31.1825 4.90625C28.8331 2.81438 21.7887 0.0787547 17.3012 0.13438C16.26 0.155005 15.2325 0.245005 14.2337 0.41563C12.5381 0.70563 11.0962 1.35375 9.87812 2.25563C9.77562 2.31625 9.66937 2.3725 9.5675 2.43813C6.58875 4.35063 5.01062 6.98125 4.9375 10.0275C4.89125 10.1831 4.80437 10.5025 4.80312 10.5069C3.57625 11.2844 -0.733752 14.6269 0.105624 16.6538C0.399999 17.3688 4.2375 16.9469 4.87875 16.7931C6.00625 16.5206 6.8725 16.3119 7.69187 16.3775C8.51187 16.4425 10.1256 16.9031 11.1725 17.0131C15.6319 17.4881 19.8562 17.0719 23.6519 18.9069C25.5394 19.82 26.0181 22.5869 25.6644 24.4463C25.0781 26.2225 23.9931 27.74 21.9806 28.48C20.8087 28.9113 19.6219 28.8119 18.5169 28.4163C17.0469 26.6463 15.3269 25.2475 13.1819 24.1769C11.4737 23.3244 11.6619 27.7456 15.525 30.4519C15.5919 30.4981 15.6387 30.5519 15.6944 30.6031C15.79 31.685 14.7294 32.9244 14.3825 33.8456C13.9525 34.9944 13.6712 38.1706 14.5006 37.8869C16.2637 37.285 17.5987 36.0813 18.4581 34.5481C19.005 34.16 19.3837 32.4931 20.0094 32.2475C28.1237 29.0494 31.3856 28.1844 34.3838 22.4669C37.5519 16.4269 36.1869 9.3575 31.1806 4.90438" fill="#F9FAFB"/>
</svg>
