<svg width="40" height="40" viewBox="0 0 40 40" fill="none" xmlns="http://www.w3.org/2000/svg">
<path d="M24.6438 29.3072C26.9268 32.4076 26.4425 32.3346 27.9624 33.1514C31.1003 34.8377 25.1768 36.0011 22.5109 34.7442C19.8442 33.488 18.6374 30.4423 19.816 27.9422C20.9939 25.442 22.8956 26.9337 24.6438 29.3072ZM39.1656 29.8116L38.9627 29.5575C38.9627 29.5575 38.9203 29.5045 38.842 29.4139C38.7643 29.3203 38.6431 29.2021 38.5096 29.0314C38.4749 28.9901 38.4401 28.9455 38.4013 28.9026C38.3643 28.8578 38.3224 28.8161 38.286 28.7631C38.2113 28.659 38.1265 28.556 38.0395 28.4454C37.9565 28.3217 37.8708 28.1999 37.7824 28.08C37.6999 27.947 37.6111 27.8122 37.5228 27.6734C37.3581 27.3827 37.1803 27.0826 37.0362 26.7479C37.001 26.6637 36.9545 26.5866 36.925 26.4983C36.8923 26.4116 36.8576 26.3257 36.8209 26.2406C36.8015 26.1989 36.7879 26.1536 36.7738 26.1088C36.7585 26.0647 36.7432 26.02 36.728 25.9753C36.6974 25.887 36.6626 25.7993 36.6403 25.7064C36.6138 25.6151 36.589 25.5233 36.559 25.4328C36.5361 25.3404 36.5173 25.2457 36.4937 25.1526C36.4825 25.1056 36.4678 25.0603 36.459 25.0126L36.4354 24.869L36.4078 24.7266C36.3984 24.679 36.386 24.6326 36.3836 24.583C36.3742 24.486 36.3589 24.3901 36.3454 24.293C36.3424 24.2706 36.336 24.2424 36.336 24.2236L36.3342 24.1688C36.3325 24.1323 36.3295 24.0958 36.326 24.0594C36.3224 24.023 36.3178 23.987 36.3131 23.9505L36.3107 23.937L36.3102 23.9305L36.3096 23.9169L36.3085 23.8611L36.3049 23.7499L36.2941 23.3933L36.2943 23.3897L36.2949 23.3715L36.2967 23.3344L36.299 23.2603L36.3031 23.112C36.3054 23.0626 36.3013 23.0126 36.3066 22.9637L36.3202 22.8166L36.3319 22.6701C36.3342 22.6206 36.336 22.5718 36.3455 22.5235C36.359 22.427 36.3743 22.3312 36.3837 22.2335C36.386 22.1847 36.3984 22.1376 36.4078 22.0905L36.4355 21.9474L36.4591 21.8044C36.4679 21.7568 36.4827 21.7114 36.4938 21.6644C36.5174 21.5714 36.5361 21.4767 36.5591 21.3837C36.5891 21.2937 36.6138 21.2019 36.6403 21.1101C36.6627 21.0171 36.6974 20.93 36.7281 20.8412C36.7434 20.7965 36.7587 20.7523 36.7739 20.7082C36.788 20.6634 36.8016 20.6182 36.821 20.5764C36.8576 20.4913 36.8923 20.4053 36.9251 20.3187C36.9546 20.2304 37.001 20.1533 37.0363 20.0692C37.1804 19.7344 37.3581 19.4337 37.5229 19.1437C37.6112 19.0042 37.7 18.87 37.7824 18.7365C37.871 18.6169 37.9567 18.4952 38.0396 18.3716C38.1266 18.261 38.2113 18.158 38.286 18.0539C38.326 17.9986 38.3549 17.9651 38.3867 17.9239C38.4178 17.8851 38.446 17.8438 38.4743 17.8062L38.5549 17.6955C38.5608 17.6867 38.5673 17.6779 38.5732 17.669C38.5838 17.659 38.5944 17.649 38.6044 17.6391C38.625 17.6197 38.6449 17.6008 38.6638 17.5826C38.7409 17.5108 38.8044 17.4472 38.8567 17.3955C38.91 17.3426 38.9624 17.2888 39.0139 17.2342C39.3487 16.8701 39.5311 16.3598 39.4623 15.8309C39.3381 14.8818 38.4685 14.2133 37.5194 14.3375C37.5194 14.3375 37.4411 14.3481 37.297 14.3722C37.2086 14.387 37.1205 14.4033 37.0328 14.4211C37.0069 14.4258 36.9798 14.4311 36.9521 14.4364C36.9385 14.4393 36.9245 14.4422 36.9098 14.4446C36.8921 14.4505 36.8738 14.4564 36.8556 14.4629C36.7815 14.4882 36.7033 14.5152 36.6203 14.5441C36.5373 14.574 36.4485 14.6041 36.3567 14.64C36.2667 14.6752 36.1625 14.7135 36.0772 14.7524C35.896 14.8301 35.7035 14.923 35.4941 15.0219C35.2923 15.1301 35.0804 15.2537 34.8563 15.3873C34.641 15.5309 34.4144 15.6869 34.1849 15.8598C33.7382 16.2187 33.2658 16.6394 32.8398 17.1555C32.7467 17.2601 32.6585 17.3712 32.5718 17.485C31.0915 12.6696 28.2453 9.84451 24.9494 7.66264C19.0513 3.75858 15.1224 4.19397 12.3199 6.38045C9.51674 8.56701 9.80158 13.9468 9.80158 13.9468L31.9396 18.418L31.9302 18.4336C31.8378 18.5895 31.7407 18.746 31.6624 18.9137C31.5806 19.0797 31.4965 19.2467 31.4171 19.418C31.3435 19.5909 31.274 19.768 31.204 19.9463C31.1705 20.0364 31.134 20.1258 31.1039 20.217C31.0751 20.3088 31.0463 20.4012 31.0174 20.4936C30.9903 20.5872 30.9627 20.6801 30.935 20.7737C30.908 20.8672 30.8785 20.9608 30.8597 21.0567C30.8156 21.2479 30.7773 21.4409 30.7373 21.6345C30.6949 21.8275 30.679 22.0247 30.652 22.2212L30.6167 22.5166C30.6043 22.6155 30.6037 22.7144 30.5978 22.8137L30.5855 23.1109L30.5803 23.2598L30.5773 23.334L30.576 23.3716L30.5755 23.3899V23.3993C30.576 23.4493 30.5731 23.301 30.5773 23.5134L30.5961 23.9594L30.6008 24.0706L30.6038 24.1259L30.6043 24.1406L30.6067 24.1612L30.6108 24.203L30.6467 24.5366L30.6867 24.8691L30.7091 25.0344C30.7173 25.0892 30.7279 25.1327 30.7373 25.1827C30.7773 25.3763 30.8155 25.5693 30.8597 25.7599C30.8785 25.8558 30.908 25.9494 30.935 26.0436C30.9627 26.1371 30.9903 26.2301 31.0174 26.323C31.0463 26.416 31.0751 26.5078 31.1039 26.6002C31.1339 26.6914 31.1704 26.7808 31.204 26.8703C31.274 27.0491 31.3435 27.2257 31.4171 27.3992C31.4965 27.5698 31.5806 27.7376 31.6624 27.9035C31.7406 28.0712 31.8378 28.2271 31.9302 28.3837C32.0243 28.5383 32.1114 28.6949 32.2149 28.839C32.4185 29.1291 32.6168 29.411 32.8399 29.6617C33.2659 30.1777 33.7384 30.5984 34.1849 30.9573C34.4144 31.1304 34.641 31.2863 34.8563 31.4298C35.0805 31.5634 35.2924 31.6869 35.4942 31.7953C35.7036 31.8936 35.896 31.9871 36.0773 32.0641C36.2579 32.1424 36.4315 32.1995 36.5851 32.2525C36.6622 32.2783 36.7346 32.3025 36.8034 32.3255C36.871 32.3496 36.9393 32.3619 36.9999 32.3784C37.1223 32.4101 37.227 32.4337 37.3117 32.4519C37.4806 32.489 37.5706 32.5049 37.5706 32.5049C38.0243 32.5814 38.5138 32.4732 38.9016 32.1637C39.624 31.5869 39.7423 30.5342 39.1656 29.8116Z" fill="#EEEEEE"/>
<path d="M34.3769 22.2591C34.3769 25.8526 26.7864 34.2532 17.4225 34.2532C10.7377 34.2532 4.95656 31.5159 2.19578 27.5395C2.00102 27.2594 2.21695 26.8787 2.55711 26.9081C2.92602 26.9405 3.375 26.9758 3.8057 26.9994C4.35234 27.03 4.59891 26.3274 4.15406 26.0085C3.30437 25.3989 2.19703 24.6269 1.47094 24.205C0.878437 23.8597 0.497109 23.2377 0.473594 22.5522C0.470447 22.4545 0.468832 22.3568 0.46875 22.2591C0.46875 15.6349 8.05914 10.2651 17.4224 10.2651C26.7864 10.2651 34.3769 18.6658 34.3769 22.2591Z" fill="#F9FAFB"/>
<path d="M6.6693 18.0747C7.38422 18.0747 7.96438 18.6537 7.96438 19.371V20.9627C7.96438 21.6787 7.38422 22.2589 6.6693 22.2589C5.9532 22.2589 5.37305 21.6787 5.37305 20.9627V19.371C5.37305 18.6537 5.9532 18.0747 6.6693 18.0747Z" fill="#1A0D35"/>
<path d="M17.6123 29.2351C17.2381 29.7605 16.7785 29.3469 16.9663 28.729C17.4011 27.2993 17.757 25.0074 17.757 22.4249C17.757 19.8418 17.4011 17.5506 16.9663 16.1208C16.7785 15.503 17.2381 15.0894 17.6123 15.6148C18.5773 16.9687 19.2727 19.5118 19.2727 22.425C19.2727 25.3387 18.5773 27.8812 17.6123 29.2351ZM22.1506 27.3308C22.8454 26.3553 23.3467 24.5236 23.3467 22.4248C23.3467 20.3259 22.8454 18.4941 22.1506 17.5186C21.8804 17.1402 21.5497 17.4386 21.6851 17.8834C21.9987 18.9137 22.2546 20.5641 22.2546 22.4248C22.2546 24.2853 21.9987 25.9363 21.6851 26.9666C21.5497 27.4115 21.8804 27.7098 22.1506 27.3308Z" fill="#1A0D35"/>
</svg>
