<svg width="34" height="34" viewBox="0 0 34 34" fill="none" xmlns="http://www.w3.org/2000/svg">
<path d="M33.6668 23.6667V27H30.3335C28.0002 27 25.6668 26.3333 23.6668 25.3333C19.5002 27.5 14.5002 27.5 10.3335 25.3333C8.3335 26.3333 6.00016 27 3.66683 27H0.333496V23.6667H3.66683C6.00016 23.6667 8.3335 22.8333 10.3335 21.5C14.3335 24.3333 19.6668 24.3333 23.6668 21.5C25.6668 22.8333 28.0002 23.6667 30.3335 23.6667H33.6668ZM5.80016 19.9833C6.70016 19.7167 7.61683 19.3 8.4835 18.7333L10.3835 17.45L12.2668 18.7833C13.6668 19.7667 15.3335 20.3333 17.0002 20.3333C18.6668 20.3333 20.3335 19.7667 21.7335 18.7833L23.6168 17.45L25.5168 18.7333C26.8835 19.65 28.3835 20.1667 29.7835 20.2833C27.4002 9.33334 17.6168 0.333344 7.00016 0.333344C6.41683 0.333344 5.8835 0.633344 5.5835 1.11668C5.2835 1.61668 5.25016 2.23334 5.51683 2.75001C9.1335 9.98334 8.01683 15.8167 5.80016 19.9833ZM23.6668 28.1667C19.6668 31 14.3335 31 10.3335 28.1667C8.3335 29.5 6.00016 30.3333 3.66683 30.3333H0.333496V33.6667H3.66683C6.00016 33.6667 8.3335 33 10.3335 32C14.5002 34.1667 19.5002 34.1667 23.6668 32C25.6668 33 28.0002 33.6667 30.3335 33.6667H33.6668V30.3333H30.3335C28.0002 30.3333 25.6668 29.5 23.6668 28.1667Z" fill="#F9FAFB"/>
</svg>
