<svg width="48" height="20" viewBox="0 0 48 20" fill="none" xmlns="http://www.w3.org/2000/svg">
<path d="M8.99249 2.62622C9.08541 2.43802 9.22913 2.27957 9.40739 2.16878C9.58565 2.05798 9.79136 1.99927 10.0012 1.99927C10.2111 1.99927 10.4168 2.05798 10.5951 2.16878C10.7734 2.27957 10.9171 2.43802 11.01 2.62622L12.9112 6.47872L17.1625 7.09747C17.3703 7.12745 17.5656 7.21499 17.7263 7.35019C17.8869 7.4854 18.0065 7.66287 18.0716 7.86252C18.1366 8.06217 18.1445 8.27605 18.0943 8.47993C18.0441 8.68382 17.9378 8.86959 17.7875 9.01622L14.71 12.015L15.4362 16.2487C15.4718 16.4557 15.4488 16.6684 15.3697 16.863C15.2906 17.0575 15.1587 17.226 14.9888 17.3494C14.819 17.4729 14.6179 17.5463 14.4085 17.5614C14.1991 17.5765 13.9896 17.5327 13.8037 17.435L10.0012 15.435L6.19874 17.435C6.01291 17.5327 5.80342 17.5765 5.59399 17.5614C5.38455 17.5463 5.18353 17.4729 5.01366 17.3494C4.84379 17.226 4.71186 17.0575 4.63279 16.863C4.55372 16.6684 4.53067 16.4557 4.56624 16.2487L5.29124 12.015L2.21624 9.01497C2.06633 8.86838 1.96037 8.6828 1.91032 8.47919C1.86026 8.27557 1.86811 8.06202 1.93297 7.86263C1.99783 7.66323 2.11713 7.48593 2.27739 7.35073C2.43766 7.21554 2.63252 7.12782 2.83999 7.09747L7.08999 6.47872L8.99249 2.62622Z" fill="url(#paint0_linear_858_2692)"/>
<path d="M36.9925 2.62622C37.0854 2.43802 37.2291 2.27957 37.4074 2.16878C37.5857 2.05798 37.7914 1.99927 38.0013 1.99927C38.2111 1.99927 38.4168 2.05798 38.5951 2.16878C38.7734 2.27957 38.9171 2.43802 39.01 2.62622L40.9113 6.47872L45.1625 7.09747C45.3703 7.12745 45.5656 7.21499 45.7263 7.35019C45.8869 7.4854 46.0066 7.66287 46.0716 7.86252C46.1366 8.06217 46.1445 8.27605 46.0943 8.47993C46.0441 8.68382 45.9378 8.86959 45.7875 9.01622L42.71 12.015L43.4363 16.2487C43.4718 16.4557 43.4488 16.6684 43.3697 16.863C43.2906 17.0575 43.1587 17.226 42.9888 17.3494C42.819 17.4729 42.618 17.5463 42.4085 17.5614C42.1991 17.5765 41.9896 17.5327 41.8038 17.435L38.0013 15.435L34.1988 17.435C34.0129 17.5327 33.8034 17.5765 33.594 17.5614C33.3846 17.5463 33.1835 17.4729 33.0137 17.3494C32.8438 17.226 32.7119 17.0575 32.6328 16.863C32.5537 16.6684 32.5307 16.4557 32.5663 16.2487L33.2913 12.015L30.2163 9.01497C30.0663 8.86838 29.9604 8.6828 29.9103 8.47919C29.8603 8.27557 29.8681 8.06202 29.933 7.86263C29.9978 7.66323 30.1171 7.48593 30.2774 7.35073C30.4377 7.21554 30.6325 7.12782 30.84 7.09747L35.09 6.47872L36.9925 2.62622Z" fill="url(#paint1_linear_858_2692)"/>
<defs>
<linearGradient id="paint0_linear_858_2692" x1="10.0023" y1="1.99927" x2="10.0023" y2="17.5643" gradientUnits="userSpaceOnUse">
<stop stop-color="#FEA62D" stop-opacity="0.6"/>
<stop offset="1" stop-color="#D81BC2" stop-opacity="0.5"/>
</linearGradient>
<linearGradient id="paint1_linear_858_2692" x1="38.0024" y1="1.99927" x2="38.0024" y2="17.5643" gradientUnits="userSpaceOnUse">
<stop stop-color="#FEA62D" stop-opacity="0.6"/>
<stop offset="1" stop-color="#D81BC2" stop-opacity="0.5"/>
</linearGradient>
</defs>
</svg>
