<svg width="20" height="20" viewBox="0 0 20 20" fill="none" xmlns="http://www.w3.org/2000/svg">
<path d="M8.99249 2.62622C9.08541 2.43802 9.22913 2.27957 9.40739 2.16878C9.58565 2.05798 9.79136 1.99927 10.0012 1.99927C10.2111 1.99927 10.4168 2.05798 10.5951 2.16878C10.7734 2.27957 10.9171 2.43802 11.01 2.62622L12.9112 6.47872L17.1625 7.09747C17.3703 7.12745 17.5656 7.21499 17.7263 7.35019C17.8869 7.4854 18.0065 7.66287 18.0716 7.86252C18.1366 8.06217 18.1445 8.27605 18.0943 8.47993C18.0441 8.68382 17.9378 8.86959 17.7875 9.01622L14.71 12.015L15.4362 16.2487C15.4718 16.4557 15.4488 16.6684 15.3697 16.863C15.2906 17.0575 15.1587 17.226 14.9888 17.3494C14.819 17.4729 14.6179 17.5463 14.4085 17.5614C14.1991 17.5765 13.9896 17.5327 13.8037 17.435L10.0012 15.435L6.19874 17.435C6.01291 17.5327 5.80342 17.5765 5.59399 17.5614C5.38455 17.5463 5.18353 17.4729 5.01366 17.3494C4.84379 17.226 4.71186 17.0575 4.63279 16.863C4.55372 16.6684 4.53067 16.4557 4.56624 16.2487L5.29124 12.015L2.21624 9.01497C2.06633 8.86838 1.96037 8.6828 1.91032 8.47919C1.86026 8.27557 1.86811 8.06202 1.93297 7.86263C1.99783 7.66323 2.11713 7.48593 2.27739 7.35073C2.43766 7.21554 2.63252 7.12782 2.83999 7.09747L7.08999 6.47872L8.99249 2.62622Z" fill="url(#paint0_linear_413_11144)"/>
<defs>
<linearGradient id="paint0_linear_413_11144" x1="10.0023" y1="1.99927" x2="10.0023" y2="17.5643" gradientUnits="userSpaceOnUse">
<stop stop-color="#FEA62D" stop-opacity="0.6"/>
<stop offset="1" stop-color="#D81BC2" stop-opacity="0.5"/>
</linearGradient>
</defs>
</svg>
