<svg width="24" height="44" viewBox="0 0 24 44" fill="none" xmlns="http://www.w3.org/2000/svg">
<path d="M0.972479 0.748754C0.645395 1.08362 0.46228 1.53315 0.46228 2.00125C0.46228 2.46936 0.645395 2.91889 0.972479 3.25375L19.2462 22L0.972479 40.7425C0.645395 41.0774 0.46228 41.5269 0.46228 41.995C0.46228 42.4631 0.645395 42.9126 0.972479 43.2475C1.13146 43.4108 1.32155 43.5406 1.53152 43.6292C1.74148 43.7178 1.96708 43.7635 2.19498 43.7635C2.42288 43.7635 2.64847 43.7178 2.85844 43.6292C3.06841 43.5406 3.25849 43.4108 3.41748 43.2475L22.85 23.3088C23.1913 22.9586 23.3823 22.489 23.3823 22C23.3823 21.511 23.1913 21.0414 22.85 20.6913L3.41748 0.752505C3.25849 0.589217 3.06841 0.459434 2.85844 0.370816C2.64847 0.282198 2.42288 0.236542 2.19498 0.236542C1.96708 0.236542 1.74148 0.282198 1.53152 0.370816C1.32155 0.459434 1.13146 0.589217 0.972479 0.752505V0.748754Z" fill="url(#paint0_linear_793_816)"/>
<defs>
<linearGradient id="paint0_linear_793_816" x1="23.3823" y1="22" x2="0.46228" y2="22" gradientUnits="userSpaceOnUse">
<stop stop-color="#00EFF8" stop-opacity="0.7"/>
<stop offset="0.398958" stop-color="#2CA2E9" stop-opacity="0.7"/>
<stop offset="1" stop-color="#5C4DD9" stop-opacity="0.7"/>
</linearGradient>
</defs>
</svg>
