<svg width="24" height="44" viewBox="0 0 24 44" fill="none" xmlns="http://www.w3.org/2000/svg">
<path d="M23.0275 43.2512C23.3546 42.9163 23.5377 42.4668 23.5377 41.9987C23.5377 41.5306 23.3546 41.0811 23.0275 40.7462L4.75377 22L23.0275 3.25747C23.3546 2.9226 23.5377 2.47307 23.5377 2.00497C23.5377 1.53687 23.3546 1.08733 23.0275 0.752468C22.8685 0.58918 22.6785 0.459396 22.4685 0.370777C22.2585 0.282162 22.0329 0.236507 21.805 0.236507C21.5771 0.236507 21.3515 0.282162 21.1416 0.370777C20.9316 0.459396 20.7415 0.58918 20.5825 0.752468L1.15002 20.6912C0.808722 21.0414 0.617706 21.511 0.617706 22C0.617706 22.4889 0.808721 22.9586 1.15002 23.3087L20.5825 43.2475C20.7415 43.4108 20.9316 43.5405 21.1416 43.6292C21.3515 43.7178 21.5771 43.7634 21.805 43.7634C22.0329 43.7634 22.2585 43.7178 22.4685 43.6292C22.6784 43.5405 22.8685 43.4108 23.0275 43.2475L23.0275 43.2512Z" fill="url(#paint0_linear_793_587)"/>
<defs>
<linearGradient id="paint0_linear_793_587" x1="0.617707" y1="22" x2="23.5377" y2="22" gradientUnits="userSpaceOnUse">
<stop stop-color="#00EFF8" stop-opacity="0.7"/>
<stop offset="0.398958" stop-color="#2CA2E9" stop-opacity="0.7"/>
<stop offset="1" stop-color="#5C4DD9" stop-opacity="0.7"/>
</linearGradient>
</defs>
</svg>
