<svg width="20" height="16" viewBox="0 0 20 16" fill="none" xmlns="http://www.w3.org/2000/svg">
<path d="M5.00016 5.5H6.66683V10.5H5.00016V5.5ZM13.3335 5.5H15.0002V10.5H13.3335V5.5ZM17.5002 0.5C18.4168 0.5 19.1668 1.25 19.1668 2.16667V13.8333C19.1668 14.75 18.4168 15.5 17.5002 15.5H2.50016C1.5835 15.5 0.833496 14.75 0.833496 13.8333V2.16667C0.833496 1.25 1.5835 0.5 2.50016 0.5H17.5002ZM4.16683 3.83333C3.66683 3.83333 3.3335 4.16667 3.3335 4.66667V11.3333C3.3335 11.8333 3.66683 12.1667 4.16683 12.1667H7.50016C8.00016 12.1667 8.3335 11.8333 8.3335 11.3333V4.66667C8.3335 4.16667 8.00016 3.83333 7.50016 3.83333H4.16683ZM12.5002 3.83333C12.0002 3.83333 11.6668 4.16667 11.6668 4.66667V11.3333C11.6668 11.8333 12.0002 12.1667 12.5002 12.1667H15.8335C16.3335 12.1667 16.6668 11.8333 16.6668 11.3333V4.66667C16.6668 4.16667 16.3335 3.83333 15.8335 3.83333H12.5002ZM10.0002 7.16667C10.5002 7.16667 10.8335 6.83333 10.8335 6.33333C10.8335 5.83333 10.5002 5.5 10.0002 5.5C9.50016 5.5 9.16683 5.83333 9.16683 6.33333C9.16683 6.83333 9.50016 7.16667 10.0002 7.16667ZM10.0002 10.5C10.5002 10.5 10.8335 10.1667 10.8335 9.66667C10.8335 9.16667 10.5002 8.83333 10.0002 8.83333C9.50016 8.83333 9.16683 9.16667 9.16683 9.66667C9.16683 10.1667 9.50016 10.5 10.0002 10.5Z" fill="#F9FAFB"/>
</svg>
