<svg width="12" height="16" viewBox="0 0 12 16" fill="none" xmlns="http://www.w3.org/2000/svg">
<path d="M0.522 1.88402L6 0.666687L11.478 1.88402C11.626 1.91693 11.7584 1.99933 11.8533 2.11762C11.9482 2.23592 12 2.38303 12 2.53469V9.19269C12 9.85118 11.8373 10.4995 11.5266 11.08C11.2158 11.6606 10.7666 12.1554 10.2187 12.5207L6 15.3334L1.78133 12.5207C1.23352 12.1555 0.784307 11.6608 0.473565 11.0803C0.162824 10.4999 0.000157571 9.85173 0 9.19335V2.53469C2.60252e-05 2.38303 0.0517586 2.23592 0.14666 2.11762C0.241561 1.99933 0.373958 1.91693 0.522 1.88402ZM6.66667 6.66669V3.33335L3.33333 8.00002H5.33333V11.3334L8.66667 6.66669H6.66667Z" fill="#F9FAFB"/>
</svg>
