<svg width="16" height="16" viewBox="0 0 16 16" fill="none" xmlns="http://www.w3.org/2000/svg">
<path d="M3.54592 8.25262C3.54592 6.20688 4.81222 4.45159 6.60201 3.72873L7.51526 1.89435C4.40202 2.33663 2 5.01914 2 8.25262C2 11.1945 3.98829 13.6805 6.69153 14.438L6.86718 12.875C4.9385 12.2242 3.54592 10.398 3.54592 8.25262Z" fill="#F9FAFB"/>
<path d="M14.8453 8.25257C14.8453 5.31132 12.8578 2.82577 10.1555 2.06769L9.9759 3.62955C11.9057 4.27966 13.2993 6.1064 13.2993 8.25257C13.2993 10.2864 12.0478 12.0331 10.2745 12.7637L9.33594 14.61C12.4463 14.1652 14.8453 11.484 14.8453 8.25257Z" fill="#F9FAFB"/>
<path d="M12.0988 7.47426C12.1597 7.3545 12.154 7.22295 12.0837 7.10846C12.0134 6.99392 11.8887 6.94826 11.7543 6.94826H8.81604L9.44856 1.44928C9.47011 1.26285 9.35455 1.06971 9.17455 1.01628C9.1374 1.00527 9.09976 1 9.06261 1C8.9199 1 8.78502 1.08121 8.7186 1.21459L4.74495 9.19907C4.68534 9.31883 4.69191 9.47831 4.76235 9.59212C4.83283 9.70589 4.95708 9.79855 5.09095 9.79855H7.99047L7.39606 15.0906C7.37529 15.2763 7.49031 15.4325 7.66935 15.486C7.70612 15.497 7.74336 15.5 7.78013 15.5C7.92254 15.5 8.05743 15.4209 8.12472 15.2885L12.0988 7.47426Z" fill="#F9FAFB"/>
</svg>
